<svg width="27" height="25" viewBox="0 0 27 25" fill="none" xmlns="http://www.w3.org/2000/svg">
<path d="M11 22.5C11 23.8807 9.88071 25 8.5 25C7.11929 25 6 23.8807 6 22.5C6 21.1193 7.11929 20 8.5 20C9.88071 20 11 21.1193 11 22.5Z" fill="white"/>
<path d="M24 22.5C24 23.8807 22.8807 25 21.5 25C20.1193 25 19 23.8807 19 22.5C19 21.1193 20.1193 20 21.5 20C22.8807 20 24 21.1193 24 22.5Z" fill="white"/>
<path fill-rule="evenodd" clip-rule="evenodd" d="M8.70697 15.7071C8.60112 15.8129 8.50809 16.0779 8.67836 16.5036C8.75547 16.6963 8.8643 16.8487 8.9616 16.939C8.99897 16.9737 9.02543 16.9915 9.04022 17H23.4998C23.4998 17 23.5 17 23.5 18C23.5 19 23.4998 19 23.4998 19H8.99999C8.41425 19 7.93271 18.7129 7.60075 18.4047C7.26052 18.0888 6.99433 17.6786 6.82142 17.2464C6.49166 16.4221 6.39862 15.187 7.29274 14.2929L12.2924 9.29358L13.7072 10.7072L8.70697 15.7071ZM9.05409 17.0069L9.05241 17.0062Z" fill="white"/>
<path d="M3 3H24.3566C25.9348 3 26.8912 4.74231 26.044 6.07376L21.5894 13.0738C21.2223 13.6506 20.5859 14 19.9021 14H9.28784C8.50354 14 7.79163 13.5416 7.4671 12.8276L3 3Z" fill="white"/>
<path fill-rule="evenodd" clip-rule="evenodd" d="M2.93381 2.5H0.5V0.5H4.06619L5.85749 3.4855L4.14251 4.5145L2.93381 2.5Z" fill="white"/>
</svg>
