<svg width="14" height="16" viewBox="0 0 14 16" fill="none" xmlns="http://www.w3.org/2000/svg">
<path d="M2.00012 15.0001C2.00012 14.4478 2.44783 14.0001 3.00012 14.0001H13.0001C13.5524 14.0001 14.0001 14.4478 14.0001 15.0001C14.0001 15.5524 13.5524 16.0001 13.0001 16.0001H3.00012C2.44783 16.0001 2.00012 15.5524 2.00012 15.0001Z" fill="#C4C8C8"/>
<path d="M9.8892 0.989671C10.2797 0.599146 10.9129 0.599146 11.3034 0.989671L12.0105 1.69678C12.401 2.0873 12.401 2.72047 12.0105 3.11099L11.3034 3.8181L9.1821 1.69678L9.8892 0.989671Z" fill="#C4C8C8"/>
<path d="M8.82854 2.05033L10.9499 4.17165L3.8788 11.2427L1.75748 9.1214L8.82854 2.05033Z" fill="#C4C8C8"/>
<path d="M1.40392 9.47495L3.52524 11.5963L0.343262 12.6569L1.40392 9.47495Z" fill="#C4C8C8"/>
</svg>
