<svg width="24" height="21" viewBox="0 0 24 21" fill="none" xmlns="http://www.w3.org/2000/svg">
<path d="M20 5.5C20 8.53757 17.5375 11 14.5 11C11.4625 11 9 8.53757 9 5.5C9 2.46243 11.4625 0 14.5 0C17.5375 0 20 2.46243 20 5.5Z" fill="white"/>
<path d="M24 16.7279C22.3193 14.5246 18.6973 13 14.5 13C10.3027 13 6.68066 14.5246 5 16.7279V21H24V16.7279Z" fill="white"/>
<path d="M4.94977 6L6.36395 7.41422L4.59619 9.18195L6.36401 10.9497L4.94983 12.364L3.18201 10.5962L1.41425 12.364L0 10.9497L1.76782 9.18195L6.10352e-05 7.41422L1.41425 6L3.18201 7.76776L4.94977 6Z" fill="white"/>
</svg>
