<svg width="193" height="63" viewBox="0 0 193 63" fill="none" xmlns="http://www.w3.org/2000/svg">
<path d="M27.5125 20.0057H46.4012C48.1731 20.0079 49.8717 20.7126 51.1248 21.9652C52.378 23.2178 53.0833 24.9161 53.0863 26.6879V40.3724C53.064 41.0495 52.7793 41.6915 52.2925 42.1626C51.8056 42.6337 51.1546 42.897 50.4771 42.897C49.7996 42.897 49.1487 42.6337 48.6618 42.1626C48.1749 41.6915 47.8902 41.0495 47.8679 40.3724V27.3024C47.8657 26.6575 47.6083 26.0397 47.1521 25.584C46.6958 25.1283 46.0777 24.8716 45.4329 24.8701H32.7281C32.6626 24.869 32.5975 24.881 32.5367 24.9055C32.4759 24.9299 32.4206 24.9663 32.3742 25.0125C32.3277 25.0587 32.291 25.1138 32.2662 25.1744C32.2414 25.2351 32.229 25.3001 32.2298 25.3656V40.3724C32.2298 41.0659 31.9543 41.731 31.4639 42.2214C30.9735 42.7118 30.3084 42.9873 29.6149 42.9873C28.9214 42.9873 28.2563 42.7118 27.7659 42.2214C27.2755 41.731 27 41.0659 27 40.3724V20.504C26.9993 20.4381 27.0117 20.3727 27.0367 20.3117C27.0616 20.2507 27.0986 20.1954 27.1453 20.1489C27.192 20.1024 27.2476 20.0658 27.3087 20.0412C27.3699 20.0166 27.4353 20.0045 27.5012 20.0057H27.5125ZM60.938 34.163C60.9368 34.0971 60.9489 34.0317 60.9735 33.9705C60.9981 33.9094 61.0348 33.8538 61.0812 33.8071C61.1277 33.7604 61.1831 33.7234 61.2441 33.6985C61.305 33.6735 61.3704 33.6611 61.4363 33.6618H75.0019C75.6026 33.6618 76.1788 33.4232 76.6036 32.9984C77.0284 32.5736 77.267 31.9974 77.267 31.3967C77.267 30.7959 77.0284 30.2197 76.6036 29.7949C76.1788 29.3701 75.6026 29.1315 75.0019 29.1315H61.4363C61.3704 29.1326 61.305 29.1205 61.2438 29.0959C61.1827 29.0713 61.1271 29.0347 61.0804 28.9882C61.0337 28.9418 60.9967 28.8864 60.9718 28.8254C60.9468 28.7644 60.9344 28.699 60.9352 28.6331V27.3024C60.934 26.9824 60.9963 26.6654 61.1183 26.3696C61.2403 26.0738 61.4197 25.8051 61.646 25.579C61.8724 25.3529 62.1413 25.1738 62.4372 25.0522C62.7332 24.9305 63.0503 24.8686 63.3702 24.8701H79.3284C79.9734 24.8701 80.5921 24.6139 81.0482 24.1577C81.5043 23.7016 81.7606 23.083 81.7606 22.4379C81.7606 21.7928 81.5043 21.1742 81.0482 20.718C80.5921 20.2619 79.9734 20.0057 79.3284 20.0057H62.3934C60.6218 20.0079 58.9234 20.7127 57.6708 21.9653C56.4181 23.218 55.7133 24.9164 55.7111 26.6879V36.1252C55.7133 37.8968 56.4181 39.5951 57.6708 40.8478C58.9234 42.1005 60.6218 42.8052 62.3934 42.8075H79.3199C79.9649 42.8075 80.5836 42.5512 81.0397 42.0951C81.4958 41.6389 81.7521 41.0203 81.7521 40.3752C81.7521 39.7302 81.4958 39.1115 81.0397 38.6554C80.5836 38.1993 79.9649 37.943 79.3199 37.943H63.373C63.053 37.9441 62.7358 37.8819 62.4399 37.7599C62.1439 37.638 61.875 37.4586 61.6487 37.2323C61.4224 37.006 61.243 36.7371 61.1211 36.4411C60.9991 36.1452 60.9369 35.828 60.938 35.5079V34.163ZM121.885 40.3922C121.885 41.0838 122.16 41.7471 122.649 42.2362C123.138 42.7253 123.801 43 124.493 43C125.185 43 125.848 42.7253 126.337 42.2362C126.826 41.7471 127.101 41.0838 127.101 40.3922V25.3656C127.1 25.2998 127.112 25.2346 127.137 25.1736C127.162 25.1126 127.199 25.0572 127.245 25.0106C127.291 24.9639 127.347 24.927 127.407 24.9019C127.468 24.8768 127.533 24.8641 127.599 24.8645H135.83C136.475 24.8645 137.094 24.6082 137.55 24.1521C138.006 23.6959 138.262 23.0773 138.262 22.4322C138.262 21.7872 138.006 21.1685 137.55 20.7124C137.094 20.2563 136.475 20 135.83 20H113.201C112.556 20 111.937 20.2563 111.481 20.7124C111.025 21.1685 110.769 21.7872 110.769 22.4322C110.769 23.0773 111.025 23.6959 111.481 24.1521C111.937 24.6082 112.556 24.8645 113.201 24.8645H121.384C121.45 24.8637 121.516 24.8761 121.577 24.9011C121.638 24.926 121.694 24.9629 121.74 25.0096C121.787 25.0562 121.824 25.1118 121.849 25.1729C121.874 25.2341 121.886 25.2996 121.885 25.3656V40.3922ZM104.316 36.7396C104.435 36.7853 104.538 36.8655 104.611 36.9699C104.684 37.0744 104.724 37.1983 104.727 37.3257C104.727 37.4082 104.71 37.4898 104.679 37.5659C104.647 37.642 104.601 37.7111 104.542 37.7692C104.484 37.8274 104.415 37.8734 104.338 37.9047C104.262 37.936 104.18 37.9519 104.098 37.9515H86.6647C86.0196 37.9515 85.401 38.2078 84.9448 38.6639C84.4887 39.12 84.2325 39.7387 84.2325 40.3837C84.2325 41.0288 84.4887 41.6474 84.9448 42.1036C85.401 42.5597 86.0196 42.816 86.6647 42.816H104.373C105.656 42.8219 106.901 42.3743 107.887 41.5521C108.873 40.73 109.536 39.5861 109.761 38.3223C109.986 37.0585 109.757 35.7558 109.115 34.6442C108.474 33.5325 107.46 32.6832 106.253 32.2461L88.8053 26.0848C88.6831 26.0421 88.5772 25.9625 88.5021 25.857C88.4271 25.7515 88.3866 25.6253 88.3862 25.4959C88.3851 25.4136 88.4004 25.332 88.4313 25.2557C88.4621 25.1795 88.5079 25.1102 88.566 25.0519C88.624 24.9936 88.6931 24.9475 88.7692 24.9163C88.8453 24.885 88.9269 24.8694 89.0091 24.8701H106.42C107.065 24.8701 107.684 24.6139 108.14 24.1577C108.596 23.7016 108.852 23.083 108.852 22.4379C108.852 21.7928 108.596 21.1742 108.14 20.718C107.684 20.2619 107.065 20.0057 106.42 20.0057H88.726C87.4677 20.0102 86.2499 20.4504 85.2795 21.2514C84.3091 22.0524 83.6461 23.1648 83.4032 24.3994C83.1603 25.634 83.3525 26.9146 83.947 28.0235C84.5416 29.1324 85.5019 30.0012 86.6647 30.4821L104.316 36.7396ZM144.254 34.1772C144.253 34.1114 144.265 34.0461 144.29 33.9851C144.315 33.9242 144.352 33.8688 144.398 33.8221C144.444 33.7754 144.5 33.7385 144.56 33.7134C144.621 33.6883 144.686 33.6756 144.752 33.676H158.318C158.919 33.676 159.495 33.4373 159.919 33.0125C160.344 32.5877 160.583 32.0116 160.583 31.4108C160.583 30.81 160.344 30.2339 159.919 29.8091C159.495 29.3843 158.919 29.1456 158.318 29.1456H144.752C144.686 29.1468 144.621 29.1347 144.56 29.11C144.499 29.0854 144.444 29.0487 144.397 29.0022C144.351 28.9557 144.314 28.9003 144.289 28.8394C144.265 28.7784 144.253 28.7131 144.254 28.6473V27.3024C144.253 26.9825 144.316 26.6657 144.438 26.37C144.56 26.0744 144.739 25.8059 144.966 25.5798C145.192 25.3538 145.461 25.1747 145.756 25.0529C146.052 24.9311 146.369 24.869 146.689 24.8701H162.647C163.292 24.8701 163.911 24.6139 164.367 24.1577C164.823 23.7016 165.079 23.083 165.079 22.4379C165.079 21.7928 164.823 21.1742 164.367 20.718C163.911 20.2619 163.292 20.0057 162.647 20.0057H145.721C143.949 20.0079 142.251 20.7127 140.998 21.9653C139.745 23.218 139.041 24.9164 139.038 26.6879V36.1252C139.041 37.8965 139.746 39.5944 140.999 40.847C142.251 42.0995 143.949 42.8045 145.721 42.8075H162.647C163.292 42.8075 163.911 42.5512 164.367 42.0951C164.823 41.6389 165.079 41.0203 165.079 40.3752C165.079 39.7302 164.823 39.1115 164.367 38.6554C163.911 38.1993 163.292 37.943 162.647 37.943H146.689C146.369 37.9437 146.052 37.8813 145.756 37.7592C145.46 37.6371 145.192 37.4577 144.965 37.2315C144.739 37.0052 144.56 36.7365 144.438 36.4407C144.316 36.1449 144.253 35.8279 144.254 35.5079V34.163" fill="#003C96"/>
</svg>
