<svg width="23" height="23" viewBox="0 0 23 23" fill="none" xmlns="http://www.w3.org/2000/svg">
<path fill-rule="evenodd" clip-rule="evenodd" d="M14 14.981C12.5176 16.2403 10.5975 17 8.5 17C3.8056 17 0 13.1944 0 8.5C0 3.80557 3.8056 0 8.5 0C13.1944 0 17 3.80557 17 8.5C17 10.5975 16.2402 12.5175 14.981 14H16.1214L22.6422 20.5208L20.5209 22.6421L14 16.1212V14.981ZM14 8.5C14 11.5376 11.5375 14 8.5 14C5.46246 14 3 11.5376 3 8.5C3 5.46243 5.46246 3 8.5 3C11.5375 3 14 5.46243 14 8.5Z" fill="white"/>
</svg>
